ply
format ascii 1.0
comment File exported by Rhinoceros Version 6.0
element vertex 24
property float x
property float y
property float z
property float nx
property float ny
property float nz
property uchar red
property uchar green
property uchar blue
element face 8
property list uchar uint vertex_index
element material 1
property uchar ambient_red
property uchar ambient_green
property uchar ambient_blue
property uchar ambient_alpha
property uchar diffuse_red
property uchar diffuse_green
property uchar diffuse_blue
property uchar diffuse_alpha
property uchar emissive_red
property uchar emissive_green
property uchar emissive_blue
property uchar emissive_alpha
property uchar specular_red
property uchar specular_green
property uchar specular_blue
property uchar specular_alpha
property double shine
property double transparency
end_header
0 0 0 0 -1 0 250 250 250
0 0 30 0 -1 0 250 250 250
30 0 0 0 -1 0 250 250 250
30 0 30 0 -1 0 250 250 250
30 0 0 1 0 0 250 250 250
30 0 30 1 0 0 250 250 250
30 30 0 1 0 0 250 250 250
30 30 30 1 0 0 250 250 250
30 30 0 0 1 0 250 250 250
30 30 30 0 1 0 250 250 250
0 30 0 0 1 0 250 250 250
0 30 30 0 1 0 250 250 250
0 30 0 -1 0 0 250 250 250
0 30 30 -1 0 0 250 250 250
0 0 0 -1 0 0 250 250 250
0 0 30 -1 0 0 250 250 250
0 0 0 0 0 -1 250 250 250
30 0 0 0 0 -1 250 250 250
30 30 0 0 0 -1 250 250 250
0 30 0 0 0 -1 250 250 250
0 0 30 0 0 1 250 250 250
30 0 30 0 0 1 250 250 250
30 30 30 0 0 1 250 250 250
0 30 30 0 0 1 250 250 250
4 0 2 3 1
4 4 6 7 5
4 8 10 11 9
4 12 14 15 13
3 17 16 19
3 19 18 17
3 21 23 20
3 23 21 22
0 0 0 255 250 250 250 255 0 0 0 255 255 255 255 255 0 0
